<?xml version="1.0" standalone="no"?>
<!DOCTYPE svg PUBLIC "-//W3C//DTD SVG 20010904//EN"
 "http://www.w3.org/TR/2001/REC-SVG-20010904/DTD/svg10.dtd">
<svg version="1.0" xmlns="http://www.w3.org/2000/svg"
 width="2816.000000pt" height="1536.000000pt" viewBox="0 0 2816.000000 1536.000000"
 preserveAspectRatio="xMidYMid meet">

<g transform="translate(0.000000,1536.000000) scale(0.100000,-0.100000)"
fill="#000000" stroke="none">
<path d="M12918 11754 c-5 -4 -8 -20 -8 -36 l0 -28 -115 0 -115 0 0 30 0 30
-120 0 -120 0 0 -30 c0 -29 -2 -30 -45 -30 l-45 0 0 -150 0 -150 45 0 45 0 0
-39 c0 -66 10 -77 32 -34 11 21 26 43 34 49 23 18 16 24 -26 24 l-40 0 0 150
0 150 120 0 120 0 0 -125 0 -125 43 1 c23 1 72 1 109 1 61 -2 67 -4 71 -24 2
-13 5 43 6 125 l1 147 120 0 120 0 0 -115 c0 -112 1 -115 23 -116 12 -1 64 -2
114 -3 l93 -1 0 118 0 117 120 0 120 0 0 -98 c0 -65 4 -103 13 -111 10 -11 10
-13 0 -7 -18 10 -16 -16 2 -40 14 -18 14 -18 8 4 -3 13 -1 22 6 22 6 0 11 -5
11 -11 0 -6 5 -7 13 -2 6 4 33 8 60 8 35 0 47 -3 47 -15 0 -13 1 -13 10 0 7
12 9 11 8 -6 -1 -12 -10 -21 -21 -21 -12 -1 -17 3 -13 13 3 8 1 14 -3 14 -5 0
-11 -6 -14 -14 -4 -9 -24 -16 -49 -19 -27 -2 -14 -4 34 -5 53 -1 78 2 81 11 4
10 6 10 6 0 1 -7 8 -13 16 -13 13 0 15 23 15 145 l0 145 -115 0 -115 0 0 30 0
30 -120 0 -120 0 0 -30 0 -30 -115 0 -115 0 0 30 c0 27 -3 30 -32 30 -18 0
-69 3 -113 6 -44 4 -83 3 -87 -2z"/>
<path d="M13883 11743 c20 -2 37 -8 37 -12 0 -4 6 -8 13 -8 6 0 17 -2 22 -3
24 -6 76 1 71 9 -3 5 6 8 19 7 18 -1 28 -8 32 -23 5 -22 9 -23 119 -23 l114 0
1 -35 c1 -19 3 -39 4 -45 1 -5 3 -31 4 -57 1 -31 4 -43 10 -35 4 8 11 13 15
13 49 -7 64 0 86 43 13 25 19 50 14 57 -5 8 -2 11 8 6 9 -3 21 0 28 6 10 9 11
9 6 0 -10 -17 0 -16 28 2 l23 15 7 -76 c3 -43 6 -95 6 -118 0 -23 4 -36 8 -31
8 12 62 16 62 5 0 -4 7 -11 16 -14 8 -3 13 -2 10 3 -3 4 6 6 20 3 14 -2 28
-11 31 -18 4 -11 8 -10 21 2 15 15 16 15 23 -2 6 -18 7 -18 11 1 5 16 6 17 7
3 0 -10 6 -18 11 -18 6 0 11 43 12 105 1 58 2 117 2 132 1 24 -5 28 -64 45
-72 20 -81 20 -267 12 l-133 -6 0 31 0 31 -237 -2 c-131 -1 -221 -3 -200 -5z"/>
<path d="M14338 11743 c6 -2 18 -2 25 0 6 3 1 5 -13 5 -14 0 -19 -2 -12 -5z"/>
<path d="M14428 11733 c6 -2 18 -2 25 0 6 3 1 5 -13 5 -14 0 -19 -2 -12 -5z"/>
<path d="M14558 11713 c7 -3 16 -2 19 1 4 3 -2 6 -13 5 -11 0 -14 -3 -6 -6z"/>
<path d="M11591 11674 c0 -11 3 -14 6 -6 3 7 2 16 -1 19 -3 4 -6 -2 -5 -13z"/>
<path d="M13670 11430 c-9 -6 -10 -10 -3 -10 6 0 15 5 18 10 8 12 4 12 -15 0z"/>
<path d="M15056 11390 c-131 -4 -180 -8 -184 -17 -2 -9 7 -13 27 -13 18 0 34
-7 40 -17 8 -15 14 -16 38 -7 26 10 29 9 31 -10 1 -12 4 -30 6 -41 3 -11 5
-57 5 -102 l1 -83 114 0 115 0 3 145 c2 91 -1 146 -7 147 -5 2 -91 1 -189 -2z"/>
<path d="M14825 11370 c3 -5 12 -7 20 -3 21 7 19 13 -6 13 -11 0 -18 -4 -14
-10z"/>
<path d="M15708 11135 c-6 -30 -3 -43 8 -33 3 4 4 19 2 35 l-3 28 -7 -30z"/>
<path d="M12354 10945 c0 -82 2 -115 3 -72 2 43 2 110 0 150 -1 40 -3 5 -3
-78z"/>
<path d="M15732 10950 c0 -14 2 -19 5 -12 2 6 2 18 0 25 -3 6 -5 1 -5 -13z"/>
<path d="M13520 10565 l0 -75 40 0 40 0 1 -107 c0 -60 4 -128 8 -153 l8 -45 8
40 c4 22 10 34 12 28 4 -10 8 -9 20 2 8 8 19 13 24 10 5 -4 9 2 9 12 0 15 2
16 10 3 8 -12 11 -11 16 8 5 18 12 23 30 19 13 -2 22 1 21 7 -1 6 8 11 20 10
12 0 20 3 17 7 -2 4 3 12 13 17 12 8 18 27 21 76 l4 66 -116 0 -116 0 0 75 0
75 -45 0 -45 0 0 -75z"/>
<path d="M13840 10570 l0 -70 114 0 c129 0 126 -3 126 93 l0 47 -120 0 -120 0
0 -70z"/>
<path d="M14320 10572 c0 -4 14 -13 30 -19 17 -6 30 -10 30 -7 0 2 -13 10 -30
19 -16 9 -30 12 -30 7z"/>
<path d="M14320 10420 l0 -70 55 0 c33 0 55 4 55 11 0 6 -12 8 -32 5 -29 -5
-31 -5 -11 5 12 7 24 19 26 28 4 13 5 13 6 -2 0 -10 6 -15 11 -12 6 3 10 -1
10 -9 0 -10 6 -13 17 -9 12 5 14 3 9 -8 -4 -8 1 -4 11 7 11 14 28 21 46 20 15
-1 27 1 27 4 0 3 -18 26 -41 53 -37 43 -44 47 -85 47 -24 0 -44 -5 -44 -11 0
-5 -6 -7 -12 -3 -8 5 -8 1 2 -12 8 -10 10 -16 6 -12 -5 4 -15 3 -23 -4 -7 -6
-16 -8 -20 -4 -3 3 -1 6 5 6 7 0 12 9 12 20 0 11 -7 20 -15 20 -12 0 -15 -14
-15 -70z m77 14 c-3 -3 -12 -4 -19 -1 -8 3 -5 6 6 6 11 1 17 -2 13 -5z m-40
-30 c-3 -3 -12 -4 -19 -1 -8 3 -5 6 6 6 11 1 17 -2 13 -5z"/>
<path d="M12351 10404 c0 -11 3 -14 6 -6 3 7 2 16 -1 19 -3 4 -6 -2 -5 -13z"/>
<path d="M12352 10360 c0 -14 2 -19 5 -12 2 6 2 18 0 25 -3 6 -5 1 -5 -13z"/>
<path d="M12351 10294 c0 -11 3 -14 6 -6 3 7 2 16 -1 19 -3 4 -6 -2 -5 -13z"/>
<path d="M12351 10254 c0 -11 3 -14 6 -6 3 7 2 16 -1 19 -3 4 -6 -2 -5 -13z"/>
<path d="M12351 10214 c0 -11 3 -14 6 -6 3 7 2 16 -1 19 -3 4 -6 -2 -5 -13z"/>
<path d="M13524 10100 c0 -52 1 -74 3 -47 2 26 2 68 0 95 -2 26 -3 4 -3 -48z"/>
<path d="M12751 9864 c0 -11 3 -14 6 -6 3 7 2 16 -1 19 -3 4 -6 -2 -5 -13z"/>
<path d="M12353 9625 c0 -22 2 -30 4 -17 2 12 2 30 0 40 -3 9 -5 -1 -4 -23z"/>
<path d="M16517 9438 c-15 -78 -25 -143 -23 -145 5 -5 34 123 47 210 19 121 4
81 -24 -65z"/>
<path d="M15642 9318 c-45 -33 -81 -63 -78 -65 2 -3 38 20 79 51 40 31 76 56
80 56 3 0 5 -9 4 -20 -1 -11 -7 -20 -14 -20 -7 0 -13 -8 -13 -17 0 -15 -2 -16
-10 -3 -9 13 -10 13 -11 0 -1 -8 -1 -19 0 -24 1 -5 -4 -4 -13 3 -9 7 -17 8
-20 2 -3 -5 0 -12 6 -15 7 -3 1 -3 -14 0 -18 4 -28 2 -28 -6 0 -6 5 -8 12 -4
7 4 8 3 4 -4 -4 -6 -23 -10 -44 -8 -27 3 -46 -3 -70 -21 l-33 -25 3 -106 3
-107 60 0 60 0 77 155 c69 142 106 230 79 190 -8 -12 -12 -10 -19 10 -5 14 -8
28 -5 33 11 18 -18 2 -95 -55z"/>
<path d="M13065 9329 c-38 -15 -74 -30 -80 -32 -5 -3 5 -5 23 -4 17 0 32 3 32
7 0 4 21 15 48 25 26 10 51 22 57 26 15 14 -5 9 -80 -22z"/>
<path d="M12352 9255 c0 -16 2 -22 5 -12 2 9 2 23 0 30 -3 6 -5 -1 -5 -18z"/>
<path d="M13154 9265 c-8 -20 6 -171 14 -158 4 6 15 12 25 14 10 2 17 7 15 11
-2 4 6 14 17 23 15 11 16 14 3 9 -15 -5 -16 -3 -5 20 7 14 16 26 20 26 5 0 5
-4 2 -10 -3 -6 1 -7 9 -4 14 5 14 8 0 21 -12 12 -12 18 -2 31 11 13 10 15 -4
9 -11 -4 -17 -2 -15 5 1 6 -15 13 -36 15 -27 3 -39 0 -43 -12z"/>
<path d="M12841 9250 c-30 -11 -60 -25 -65 -31 -6 -6 13 -1 42 10 29 12 54 21
55 21 5 0 -1 -46 -8 -63 -8 -18 11 -50 26 -42 4 3 10 -12 12 -32 2 -21 4 6 5
60 1 53 -1 97 -5 97 -5 -1 -32 -10 -62 -20z"/>
<path d="M12838 9214 c6 -3 9 -10 6 -16 -4 -6 -1 -9 5 -7 19 7 14 24 -6 26
-10 2 -12 0 -5 -3z"/>
<path d="M16401 9042 c-8 -20 -16 -43 -19 -51 -3 -9 -1 -12 6 -7 12 7 37 85
30 92 -2 2 -10 -13 -17 -34z"/>
<path d="M15240 9060 c-9 -6 -10 -10 -3 -10 6 0 15 5 18 10 8 12 4 12 -15 0z"/>
<path d="M15120 9000 c-9 -6 -10 -10 -3 -10 6 0 15 5 18 10 8 12 4 12 -15 0z"/>
<path d="M15270 8943 c0 -32 0 -32 49 -30 44 2 48 4 46 24 -2 19 1 20 21 13
13 -5 26 -5 29 -1 3 5 16 8 30 6 14 -1 25 1 25 6 0 4 -45 9 -100 11 l-100 3 0
-32z m73 0 c-3 -7 -8 -13 -12 -13 -4 0 -8 6 -8 13 0 8 6 14 13 14 7 0 10 -6 7
-14z"/>
<path d="M13050 8960 c-18 -12 -2 -12 25 0 13 6 15 9 5 9 -8 0 -22 -4 -30 -9z"/>
<path d="M15270 8881 c0 -25 6 -27 13 -6 4 8 2 17 -3 20 -6 4 -10 -3 -10 -14z"/>
<path d="M15380 8890 c0 -5 5 -10 11 -10 5 0 7 5 4 10 -3 6 -8 10 -11 10 -2 0
-4 -4 -4 -10z"/>
<path d="M14670 8804 c-58 -24 -109 -46 -115 -49 -13 -7 38 3 61 12 13 5 15 3
9 -8 -5 -7 -9 -24 -9 -38 -1 -26 -35 -39 -48 -18 -5 8 -8 6 -8 -5 0 -16 12
-18 115 -18 l115 0 0 -31 0 -30 53 7 c28 4 60 7 69 6 9 0 19 6 22 14 3 9 14
14 23 13 30 -3 43 1 43 11 0 5 -47 11 -107 12 l-108 3 0 83 c0 45 -2 82 -5 81
-3 0 -52 -20 -110 -45z"/>
<path d="M11949 8813 c-13 -16 -12 -17 4 -4 9 7 17 15 17 17 0 8 -8 3 -21 -13z"/>
<path d="M15455 8794 c-10 -15 -36 -47 -58 -71 -22 -23 -37 -43 -33 -43 14 0
121 128 113 136 -2 2 -12 -8 -22 -22z"/>
<path d="M11909 8783 c-13 -16 -12 -17 4 -4 9 7 17 15 17 17 0 8 -8 3 -21 -13z"/>
<path d="M11840 8725 c-24 -25 -42 -45 -39 -45 3 0 25 20 49 45 24 25 42 45
39 45 -3 0 -25 -20 -49 -45z"/>
<path d="M16216 8658 c-20 -36 -23 -50 -16 -83 4 -22 8 -32 9 -23 1 12 8 16
22 13 25 -5 62 12 54 25 -3 5 -1 11 5 15 5 3 10 -1 10 -9 0 -9 4 -16 9 -16 15
0 7 35 -9 41 -11 5 -7 10 15 20 17 6 36 11 43 10 6 -1 12 3 12 9 0 6 -27 10
-66 10 -55 0 -65 3 -60 15 11 29 -3 15 -28 -27z m54 -14 c0 -4 -7 -4 -15 -1
-8 4 -17 2 -20 -3 -4 -6 5 -10 19 -10 40 0 31 -15 -9 -16 -19 0 -35 1 -35 2 0
2 5 14 11 28 10 21 15 23 30 15 11 -5 19 -12 19 -15z"/>
<path d="M14338 8683 c-15 -4 -18 -17 -18 -86 0 -45 3 -99 6 -120 6 -34 8 -36
21 -20 8 10 11 12 7 4 -5 -11 -1 -12 22 -7 16 4 39 7 51 7 12 -1 25 4 29 10 4
7 -1 9 -15 4 -12 -3 -21 -2 -21 4 0 13 25 20 83 23 l47 2 0 54 c0 49 -1 52
-16 38 -17 -18 -25 -20 -21 -7 1 5 -2 10 -8 11 -5 1 -18 6 -27 11 -10 5 -18 5
-20 -1 -2 -6 -9 -6 -18 0 -13 8 -12 11 5 24 15 12 17 16 5 17 -8 1 -1 5 15 9
23 6 12 8 -43 9 -46 1 -71 5 -67 11 3 6 5 9 3 9 -2 -1 -11 -3 -20 -6z"/>
<path d="M11764 8658 l-19 -23 23 19 c21 18 27 26 19 26 -2 0 -12 -10 -23 -22z"/>
<path d="M11980 8648 c0 -10 2 -18 5 -18 2 0 9 8 14 18 8 14 6 19 -5 19 -7 0
-14 -9 -14 -19z"/>
<path d="M16388 8663 c6 -2 18 -2 25 0 6 3 1 5 -13 5 -14 0 -19 -2 -12 -5z"/>
<path d="M14541 8634 c0 -11 3 -14 6 -6 3 7 2 16 -1 19 -3 4 -6 -2 -5 -13z"/>
<path d="M11981 8604 c0 -11 3 -14 6 -6 3 7 2 16 -1 19 -3 4 -6 -2 -5 -13z"/>
<path d="M14055 8595 c-5 -2 -55 -17 -110 -34 l-100 -30 3 -76 4 -75 112 0
112 0 2 110 c1 61 -1 110 -5 109 -5 0 -12 -2 -18 -4z"/>
<path d="M12119 8523 c-13 -16 -12 -17 4 -4 9 7 17 15 17 17 0 8 -8 3 -21 -13z"/>
<path d="M12064 8478 l-19 -23 23 19 c21 18 27 26 19 26 -2 0 -12 -10 -23 -22z"/>
<path d="M14537 8470 c3 -11 7 -20 9 -20 2 0 4 9 4 20 0 11 -4 20 -9 20 -5 0
-7 -9 -4 -20z"/>
<path d="M13495 8420 l-110 -37 75 -2 c41 0 89 -4 107 -7 37 -7 46 5 41 53
l-3 30 -110 -37z"/>
<path d="M11999 8423 l-24 -28 28 24 c15 14 27 26 27 28 0 8 -8 1 -31 -24z"/>
<path d="M15987 8327 c-116 -143 -299 -315 -493 -464 -16 -13 -22 -20 -14 -18
13 4 15 -2 12 -35 l-4 -40 98 0 c87 1 97 2 81 15 -10 7 -18 24 -17 37 4 40 0
47 -21 43 -18 -4 -19 -2 -8 13 7 9 9 14 5 10 -5 -4 -16 -2 -24 5 -13 10 -14 9
-8 -2 6 -9 5 -12 -5 -9 -8 3 -25 1 -39 -4 -30 -11 -27 -8 60 62 36 29 74 60
84 69 11 9 17 12 14 6 -3 -5 -2 -28 2 -50 8 -40 8 -39 9 16 2 81 14 89 134 89
l97 0 1 88 c1 110 3 119 32 151 33 36 90 111 84 111 -2 0 -39 -42 -80 -93z
m-67 -111 c0 -2 -8 -10 -17 -17 -16 -13 -17 -12 -4 4 13 16 21 21 21 13z"/>
<path d="M13295 8354 c-38 -13 -88 -31 -110 -39 l-40 -15 3 -111 3 -111 32 5
c18 3 42 7 55 10 13 4 22 1 22 -6 0 -7 4 -6 10 3 5 8 10 10 10 5 0 -6 11 -12
26 -13 16 -1 23 2 18 9 -5 8 -1 8 14 0 11 -6 23 -11 26 -11 3 0 6 60 5 133 0
72 -3 125 -6 117 -3 -8 -12 -18 -19 -23 -7 -4 -12 -13 -10 -20 1 -6 1 -9 -1
-4 -3 4 -9 4 -15 1 -6 -4 -8 2 -3 16 5 15 4 20 -4 16 -6 -4 -11 -14 -11 -22 0
-21 -18 -17 -25 6 -4 12 -11 17 -18 13 -15 -9 -64 -17 -56 -9 11 11 151 56
159 51 4 -3 10 2 14 10 7 19 6 19 -79 -11z"/>
<path d="M13614 8343 c2 -16 5 -50 6 -78 1 -27 4 -43 7 -34 3 11 11 15 25 11
13 -3 24 1 30 12 9 16 11 16 22 1 12 -17 82 -32 72 -16 -3 5 1 11 9 15 8 3 15
1 15 -3 0 -5 7 -11 15 -15 12 -4 15 6 15 64 l0 70 -109 0 -110 0 3 -27z m166
-68 c0 -8 -2 -15 -4 -15 -2 0 -6 7 -10 15 -3 8 -1 15 4 15 6 0 10 -7 10 -15z"/>
<path d="M14090 8260 c0 -5 5 -10 11 -10 5 0 7 5 4 10 -3 6 -8 10 -11 10 -2 0
-4 -4 -4 -10z"/>
<path d="M14093 8214 c0 -16 23 -19 31 -5 3 5 -2 11 -12 13 -11 3 -19 0 -19
-8z"/>
<path d="M13643 8207 c4 -14 26 -16 30 -3 1 5 -6 10 -16 12 -10 1 -16 -3 -14
-9z"/>
<path d="M12844 8162 c-181 -96 -325 -236 -399 -385 -46 -94 -85 -224 -85
-284 0 -31 2 -33 35 -33 l35 0 0 136 c0 74 5 144 10 155 10 17 22 19 120 19
l110 0 0 133 c0 172 -2 169 140 165 l103 -3 2 -88 c2 -49 5 -91 9 -94 3 -3 17
-5 31 -5 14 0 25 -4 25 -9 0 -14 24 -6 32 11 6 13 7 13 7 -1 1 -9 -24 -33 -54
-53 -30 -20 -55 -39 -55 -42 0 -3 19 8 43 24 23 16 57 37 75 46 19 10 30 21
26 28 -4 6 -3 8 4 4 6 -3 28 0 49 9 l38 15 -3 56 c-3 40 -7 54 -17 50 -9 -3
-11 2 -7 16 4 15 7 17 13 6 6 -9 9 -7 9 10 0 22 -2 22 -116 22 l-116 0 4 65
c1 36 3 65 3 65 0 0 -32 -17 -71 -38z m282 -227 c-3 -20 -16 -31 -16 -13 0 13
8 28 16 28 1 0 1 -7 0 -15z"/>
<path d="M13622 8180 c0 -14 2 -19 5 -12 2 6 2 18 0 25 -3 6 -5 1 -5 -13z"/>
<path d="M14248 8163 c12 -2 32 -2 45 0 12 2 2 4 -23 4 -25 0 -35 -2 -22 -4z"/>
<path d="M14107 8153 c18 -2 50 -2 70 0 21 2 7 4 -32 4 -38 0 -55 -2 -38 -4z"/>
<path d="M13768 8123 c6 -2 18 -2 25 0 6 3 1 5 -13 5 -14 0 -19 -2 -12 -5z"/>
<path d="M13718 8113 c7 -3 16 -2 19 1 4 3 -2 6 -13 5 -11 0 -14 -3 -6 -6z"/>
<path d="M13650 8103 c-8 -2 -21 -7 -29 -9 -8 -2 -12 -6 -10 -9 3 -2 25 2 49
10 25 7 36 14 25 14 -11 -1 -27 -3 -35 -6z"/>
<path d="M15964 8038 c3 -18 5 -46 6 -63 1 -16 4 -24 7 -17 2 6 12 12 21 13
14 0 13 2 -3 9 -17 7 -17 9 -3 9 11 1 15 6 12 15 -3 8 -1 17 5 21 6 3 11 15
11 26 0 14 -7 19 -30 19 -28 0 -30 -2 -26 -32z"/>
<path d="M13381 8044 c0 -11 3 -14 6 -6 3 7 2 16 -1 19 -3 4 -6 -2 -5 -13z"/>
<path d="M13445 8042 c-27 -8 -45 -17 -40 -19 6 -2 35 5 65 16 65 23 47 26
-25 3z"/>
<path d="M15295 7740 c-38 -21 -115 -58 -172 -82 -57 -24 -103 -46 -103 -50 0
-16 320 133 342 159 15 18 11 17 -67 -27z"/>
<path d="M12870 7763 c-8 -4 -21 -12 -29 -20 -7 -8 -16 -11 -19 -8 -4 3 0 10
8 15 10 7 -13 10 -67 10 l-83 0 0 -77 c0 -43 4 -73 8 -68 4 6 13 10 20 9 6 -1
24 -2 38 -3 14 0 23 -4 21 -8 -3 -5 -7 -42 -10 -83 -4 -48 -3 -68 3 -55 5 11
9 45 9 75 1 30 8 68 16 84 8 15 12 32 9 37 -3 5 0 8 7 7 6 -2 14 3 17 11 3 10
0 11 -9 5 -12 -7 -12 -5 0 9 16 20 25 23 15 5 -4 -7 9 3 29 21 21 19 37 36 37
38 0 3 0 3 -20 -4z"/>
<path d="M15440 7756 c0 -2 9 -6 20 -9 11 -3 20 -1 20 4 0 5 -9 9 -20 9 -11 0
-20 -2 -20 -4z"/>
<path d="M11632 7680 c0 -14 2 -19 5 -12 2 6 2 18 0 25 -3 6 -5 1 -5 -13z"/>
<path d="M15271 7663 c-1 -18 4 -33 10 -33 5 0 7 5 4 11 -8 12 26 40 39 32 5
-4 6 -1 2 5 -5 9 -13 9 -26 2 -13 -7 -20 -6 -23 3 -3 6 -6 -3 -6 -20z"/>
<path d="M11622 7630 c0 -14 2 -19 5 -12 2 6 2 18 0 25 -3 6 -5 1 -5 -13z"/>
<path d="M15295 7639 c4 -6 -2 -13 -13 -15 -17 -5 -19 -13 -16 -66 4 -58 14
-95 14 -50 0 13 6 22 15 22 8 0 15 5 15 10 0 6 -6 10 -12 10 -9 0 -8 3 2 9 8
6 18 7 22 5 14 -9 9 7 -7 22 -8 9 -21 12 -27 9 -7 -4 -4 1 6 9 11 9 28 16 39
16 16 0 17 2 3 15 -17 17 -51 21 -41 4z"/>
<path d="M11613 7555 c0 -22 2 -30 4 -17 2 12 2 30 0 40 -3 9 -5 -1 -4 -23z"/>
<path d="M14716 7519 c-38 -10 -91 -21 -117 -24 -32 -5 -49 -12 -49 -21 0 -11
23 -14 114 -14 l114 0 4 38 c3 20 5 37 4 38 -1 1 -32 -7 -70 -17z"/>
<path d="M15031 7508 c-1 -9 -4 -23 -7 -32 -5 -13 2 -16 37 -15 33 0 39 2 24
8 -11 5 -23 7 -27 5 -3 -2 -11 8 -16 23 -6 16 -11 21 -11 11z"/>
<path d="M11602 7480 c0 -14 2 -19 5 -12 2 6 2 18 0 25 -3 6 -5 1 -5 -13z"/>
<path d="M14473 7473 c9 -2 25 -2 35 0 9 3 1 5 -18 5 -19 0 -27 -2 -17 -5z"/>
<path d="M13510 6843 c0 -343 3 -623 8 -623 4 0 6 72 4 160 l-3 160 41 0 40 0
0 90 c0 70 -3 90 -14 90 -21 0 -34 23 -27 44 7 17 8 17 14 3 3 -8 2 -18 -4
-21 -5 -2 -4 -3 2 -2 13 2 15 8 25 64 6 32 6 32 -35 32 l-41 0 0 155 0 155 40
0 c46 0 43 8 40 -123 -1 -53 1 -115 5 -137 7 -39 8 -40 48 -40 33 0 39 3 27
11 -11 8 -12 12 -2 16 14 6 17 53 2 53 -5 0 -10 7 -10 15 0 8 5 15 10 15 6 0
10 6 10 14 0 8 9 21 19 28 11 8 21 27 23 43 2 17 9 39 16 50 11 19 11 19 12
-5 0 -20 2 -22 10 -10 9 13 10 13 10 0 0 -12 2 -12 9 -2 4 8 17 12 27 10 15
-2 20 4 22 30 l3 32 -120 0 -121 0 0 149 c0 110 3 151 13 154 6 2 -14 6 -46 8
l-57 4 0 -622z m27 -100 c-3 -10 -5 -4 -5 12 0 17 2 24 5 18 2 -7 2 -21 0 -30z"/>
<path d="M13960 7463 l-116 -4 1 -127 c2 -197 -2 -181 48 -177 23 2 74 4 112
5 43 0 65 4 56 9 -7 5 -9 10 -3 12 12 5 21 92 22 202 l0 77 120 0 120 0 0
-144 0 -145 30 9 c18 5 30 5 30 0 0 -11 55 -3 87 12 12 6 31 8 42 5 12 -3 24
-1 27 5 4 6 9 64 11 129 l5 119 -94 1 c-64 1 -84 4 -63 9 29 7 -204 9 -435 3z
m94 -239 c3 -8 2 -12 -4 -9 -6 3 -10 10 -10 16 0 14 7 11 14 -7z"/>
<path d="M14790 7400 c0 -59 1 -60 25 -56 13 3 27 0 30 -5 4 -5 11 -9 16 -9 6
0 8 4 4 9 -3 6 4 9 15 8 12 -1 20 -8 20 -19 0 -11 5 -15 14 -12 8 3 17 1 20
-5 4 -6 15 -7 30 -1 15 5 27 5 35 -3 8 -8 11 -2 12 24 0 18 2 54 2 79 l2 45
-112 3 -113 3 0 -61z"/>
<path d="M12440 7434 c0 -13 3 -14 13 -5 8 6 18 7 22 3 5 -4 5 -1 1 6 -10 18
-36 15 -36 -4z"/>
<path d="M12508 7443 c12 -2 32 -2 45 0 12 2 2 4 -23 4 -25 0 -35 -2 -22 -4z"/>
<path d="M12352 7053 c-2 -188 -1 -203 16 -202 10 0 12 3 5 6 -10 3 -13 37
-12 126 1 67 4 109 6 92 3 -16 9 -34 15 -40 8 -7 9 -6 4 3 -4 6 -2 12 3 12 6
0 11 -5 11 -11 0 -5 4 -8 9 -5 5 4 12 0 14 -6 3 -7 6 17 6 55 l1 67 -34 0
c-35 0 -35 0 -39 53 -2 28 -4 -39 -5 -150z"/>
<path d="M12441 7198 c-1 -34 2 -38 24 -38 16 0 25 6 25 15 0 18 -16 20 -27 3
-5 -9 -10 -1 -14 22 l-6 35 -2 -37z"/>
<path d="M12500 7170 c0 -5 7 -10 16 -10 8 0 12 5 9 10 -3 6 -10 10 -16 10 -5
0 -9 -4 -9 -10z"/>
<path d="M11594 6995 c0 -88 2 -123 3 -77 2 46 2 118 0 160 -1 42 -3 5 -3 -83z"/>
<path d="M12750 7108 c0 -41 -3 -48 -19 -48 -11 0 -23 -5 -26 -10 -4 -6 -11
-8 -16 -5 -5 4 -9 -29 -9 -79 0 -70 3 -84 14 -80 8 3 24 -4 35 -15 12 -12 26
-21 31 -21 13 0 13 270 0 290 -7 11 -10 2 -10 -32z"/>
<path d="M13700 6919 c0 -22 4 -38 8 -35 8 5 4 76 -4 76 -2 0 -4 -18 -4 -41z"/>
<path d="M12441 6798 c0 -32 2 -38 8 -23 5 11 6 24 4 28 -3 4 1 14 7 22 10 12
9 15 -4 15 -12 0 -16 -10 -15 -42z"/>
<path d="M12442 6560 c0 -14 2 -19 5 -12 2 6 2 18 0 25 -3 6 -5 1 -5 -13z"/>
<path d="M12341 6452 l-1 -104 53 30 c55 31 56 34 42 107 -2 11 -4 26 -4 33
-1 7 -16 12 -40 12 -22 0 -42 5 -44 13 -3 6 -6 -35 -6 -91z"/>
<path d="M11594 6385 c0 -88 2 -123 3 -77 2 46 2 118 0 160 -1 42 -3 5 -3 -83z"/>
<path d="M13610 6483 c0 -46 0 -46 20 -28 16 14 17 20 8 27 -10 6 -9 8 4 8 9
0 20 5 24 12 4 7 3 8 -4 4 -7 -4 -12 -3 -12 3 0 5 6 12 13 14 6 3 -3 6 -20 6
-33 1 -33 0 -33 -46z"/>
<path d="M13610 6325 c0 -8 2 -15 4 -15 2 0 6 7 10 15 3 8 1 15 -4 15 -6 0
-10 -7 -10 -15z"/>
<path d="M13253 6062 c-120 -63 -123 -66 -123 -99 0 -32 -1 -33 -40 -33 -48 0
-52 13 -10 30 17 7 33 17 36 22 8 12 -154 -72 -313 -164 l-123 -70 0 -67 c0
-39 4 -61 9 -53 4 7 6 25 3 39 -3 17 -1 24 6 19 6 -4 9 -13 6 -20 -3 -7 2 -16
10 -19 9 -4 16 -1 16 6 0 7 3 8 8 2 9 -12 47 -13 59 -1 5 5 1 7 -9 3 -10 -4
-18 -2 -18 3 0 6 9 10 20 10 11 0 20 -5 20 -11 0 -8 5 -7 16 2 13 10 17 10 25
-2 8 -13 13 -6 10 14 0 4 2 6 6 6 29 -5 33 4 33 68 0 71 9 83 12 15 2 -58 10
-68 45 -54 48 19 104 31 98 22 -3 -5 7 -12 22 -16 15 -3 33 -7 40 -9 18 -6 23
20 23 121 l0 94 54 0 c29 0 80 3 114 6 l60 7 4 96 c2 53 4 97 3 97 0 1 -55
-28 -122 -64z"/>
<path d="M11594 5765 c0 -88 2 -123 3 -77 2 46 2 118 0 160 -1 42 -3 5 -3 -83z"/>
<path d="M12438 5460 c2 -92 7 -150 13 -150 6 0 7 5 3 12 -5 7 -2 9 9 5 12 -4
14 -2 10 10 -5 13 -2 15 15 11 12 -4 22 -2 22 3 0 5 -6 9 -12 10 -7 0 -3 5 10
11 12 6 22 17 22 24 0 6 14 17 30 23 17 5 30 13 30 16 0 3 -4 4 -9 1 -5 -3
-12 1 -15 10 -3 8 -2 13 3 9 13 -7 42 5 36 15 -3 5 0 12 6 16 6 3 15 0 20 -7
5 -8 9 -9 9 -4 0 15 -37 45 -46 37 -3 -4 -1 3 5 16 6 12 8 22 4 22 -4 0 -1 5
7 10 12 8 13 11 1 19 -16 10 3 26 19 16 6 -3 10 -1 10 4 0 7 -37 11 -102 11
l-103 0 3 -150z"/>
<path d="M12133 5449 l-51 -29 31 -33 c21 -21 39 -31 54 -28 16 2 22 -3 26
-20 2 -13 5 13 6 59 0 45 -2 81 -6 81 -5 -1 -31 -14 -60 -30z"/>
<path d="M11925 5332 l-30 -17 28 -3 c33 -4 40 0 35 21 -3 13 -7 13 -33 -1z"/>
<path d="M11592 5226 c-2 -83 -1 -88 17 -83 11 3 28 -3 40 -14 11 -11 25 -19
31 -19 5 0 10 -4 10 -9 0 -4 -12 -7 -26 -5 -23 2 -26 -9 -3 -12 5 -1 14 -2 19
-3 6 0 10 -7 10 -15 0 -8 8 -17 18 -19 14 -4 13 -5 -4 -6 -11 0 -26 -7 -33
-13 -11 -10 -13 -10 -7 0 4 7 1 12 -7 12 -7 0 -14 -7 -14 -15 0 -11 12 -15 44
-15 l43 0 0 106 0 106 -37 -23 c-21 -12 -47 -29 -58 -36 -11 -7 -23 -13 -27
-13 -4 0 -9 37 -11 83 l-3 82 -2 -89z"/>
<path d="M12048 5303 l-78 -4 0 -52 c0 -37 3 -48 10 -37 5 8 10 29 10 45 l0
31 58 -2 c31 -1 76 2 100 6 42 7 42 7 42 -22 0 -17 4 -27 10 -23 6 3 10 14 10
24 0 11 7 18 18 18 58 0 125 4 121 7 -7 6 -220 12 -301 9z"/>
<path d="M11740 4974 c0 -23 3 -25 43 -22 23 2 45 7 48 11 3 5 21 11 40 14 77
12 61 22 -33 23 l-98 0 0 -26z"/>
</g>
</svg>
