<?xml version="1.0" standalone="no"?>
<!DOCTYPE svg PUBLIC "-//W3C//DTD SVG 20010904//EN"
 "http://www.w3.org/TR/2001/REC-SVG-20010904/DTD/svg10.dtd">
<svg version="1.0" xmlns="http://www.w3.org/2000/svg"
 width="2816.000000pt" height="1536.000000pt" viewBox="0 0 2816.000000 1536.000000"
 preserveAspectRatio="xMidYMid meet">

<g transform="translate(0.000000,1536.000000) scale(0.100000,-0.100000)"
fill="#000000" stroke="none">
<path d="M11600 10500 l0 -1960 148 148 c163 164 250 227 459 334 l123 63 2
1350 3 1350 985 3 c1040 3 1092 1 1270 -43 279 -69 554 -221 745 -410 89 -88
145 -158 240 -300 l63 -95 21 33 c33 54 71 204 80 317 14 177 0 306 -48 450
-23 69 -59 157 -79 195 -35 66 -43 74 -152 148 -132 89 -354 202 -485 246
-119 40 -262 75 -415 103 l-125 22 -1417 4 -1418 3 0 -1961z"/>
<path d="M16090 11308 c0 -84 -6 -191 -14 -238 -28 -172 -134 -433 -243 -600
-160 -244 -458 -522 -735 -688 -399 -237 -745 -375 -1828 -730 -641 -210 -848
-298 -1058 -448 -349 -249 -491 -461 -580 -869 l-26 -120 -3 -1188 -4 -1189
33 20 c84 50 595 323 1521 812 l347 184 0 627 0 627 428 5 c368 4 445 7 557
25 144 23 360 76 475 117 108 39 340 152 448 219 335 208 628 515 819 859 161
289 257 562 310 882 28 170 25 571 -5 761 -52 324 -146 613 -273 838 -65 116
-151 246 -161 246 -4 0 -8 -69 -8 -152z m-260 -1831 c0 -13 -48 -147 -77 -217
-134 -316 -366 -594 -661 -791 -320 -214 -588 -289 -1036 -289 l-203 0 -139
-41 c-203 -59 -330 -104 -499 -176 -216 -93 -319 -149 -381 -205 l-54 -50 -2
-541 -3 -542 -210 -112 c-115 -61 -216 -112 -222 -112 -10 -1 -13 122 -13 584
0 661 1 677 72 825 35 73 55 99 142 185 209 206 390 286 1336 590 536 172 901
307 1185 437 225 103 360 183 650 387 90 63 115 78 115 68z"/>
<path d="M12779 10554 c-1 -440 -3 -906 -5 -1036 -2 -131 1 -240 5 -243 5 -3
94 28 198 69 103 41 263 100 355 131 l168 57 2 567 3 566 330 3 c210 1 349 -2
383 -9 189 -39 370 -221 417 -420 8 -37 15 -112 15 -176 0 -74 4 -113 11 -113
18 0 238 129 354 208 111 75 242 181 304 246 l34 35 -28 88 c-37 121 -75 201
-141 299 -164 248 -469 445 -768 498 -64 12 -249 16 -858 22 l-778 6 -1 -798z"/>
</g>
</svg>
